<svg width="171" height="32" viewBox="0 0 171 32" fill="none" xmlns="http://www.w3.org/2000/svg">
<path d="M43.6964 8.2934V21.5304H38.5855V9.63515C38.5855 8.81099 38.3824 8.06114 37.9776 7.38429C37.5729 6.70744 37.0314 6.16995 36.3545 5.7718C35.6777 5.37365 34.9265 5.17458 34.1037 5.17458C33.2808 5.17458 32.5297 5.37365 31.8528 5.7718C31.176 6.16995 30.6385 6.70744 30.2403 7.38429C29.8422 8.06114 29.6431 8.81231 29.6431 9.63515V21.5304H24.5336L24.5123 0.586603H29.6219L29.6431 2.44993C30.3558 1.6961 31.2065 1.09888 32.1992 0.659596C33.1893 0.220308 34.2576 0 35.4016 0C36.9239 0 38.3134 0.374258 39.5689 1.12012C40.8257 1.86731 41.8277 2.86533 42.5749 4.11551C43.3221 5.36569 43.6964 6.75788 43.6964 8.2934Z" fill="#F5F5F5"/>
<path d="M70.3787 0.586182H75.4882V21.53H70.3787V0.586182Z" fill="#F5F5F5"/>
<path d="M131.651 0.586182C130.506 0.586182 129.439 0.80649 128.448 1.24578C127.458 1.68507 126.608 2.28096 125.897 3.03213C125.893 1.64127 125.89 0.586182 125.89 0.586182H120.781L120.802 21.53H125.911V9.93201C125.957 9.24189 126.144 8.59955 126.489 8.01029C126.887 7.33344 127.42 6.78931 128.091 6.37656C128.165 6.33144 128.243 6.29693 128.319 6.25712L128.31 6.25048C128.31 6.25048 131.119 4.47077 133.967 5.61477V0.920625C133.967 0.920625 133.971 0.911335 133.971 0.910008C133.232 0.696336 132.46 0.586182 131.649 0.586182H131.651Z" fill="#F5F5F5"/>
<path d="M66.4459 14.7749H60.6701C60.2123 15.4132 59.6628 15.9348 59.0125 16.325C58.2799 16.7656 57.4664 16.978 56.5732 16.9647C55.7066 16.9514 54.9328 16.759 54.248 16.3887C53.5645 16.0184 52.9978 15.5234 52.5519 14.9023C52.1047 14.2812 51.7835 13.5791 51.5884 12.7974H66.8985C67.136 11.1212 67.0378 9.51669 66.6052 7.97984C66.1725 6.44432 65.4811 5.07602 64.5322 3.87494C63.5832 2.67387 62.4273 1.72761 61.067 1.03749C59.7053 0.346037 58.2083 0.000976562 56.5745 0.000976562C55.1359 0.000976562 53.7822 0.287642 52.5108 0.859646C51.2407 1.43298 50.1259 2.22529 49.1703 3.23658C48.2148 4.2492 47.4636 5.42241 46.9195 6.75487C46.3753 8.08867 46.1033 9.51536 46.1033 11.0376C46.1033 13.0628 46.5744 14.9129 47.5167 16.5878C48.459 18.264 49.7224 19.5964 51.307 20.5878C52.8917 21.5792 54.6475 22.0742 56.5745 22.0742C58.6688 22.0742 60.56 21.485 62.2508 20.3051C63.7186 19.2806 64.8693 17.9985 65.704 16.463C65.704 16.463 65.704 16.463 65.704 16.4617C65.712 16.4471 65.72 16.4325 65.7279 16.4179C65.8142 16.2653 65.9044 16.0821 65.992 15.887C66.0146 15.8406 66.0385 15.7968 66.061 15.749H66.0544C66.2137 15.3827 66.3583 15.0098 66.4472 14.7735L66.4459 14.7749ZM52.532 6.67126C53.0164 6.01034 53.6057 5.48479 54.3011 5.09593C54.9965 4.70707 55.753 4.51331 56.5719 4.51331C57.3907 4.51331 58.1538 4.71105 58.8625 5.10655C59.5713 5.50204 60.1685 6.03157 60.6529 6.6925C61.1373 7.35475 61.4545 8.09397 61.6045 8.9115H51.5393C51.7158 8.07938 52.0476 7.33351 52.532 6.67126Z" fill="#F5F5F5"/>
<path d="M94.8426 5.19805V0.599453H84.4562V0.586182H79.3467V0.599453V4.49598V5.19805V21.53H84.4562V12.796H92.1391V8.91143H84.4562V5.19805H94.8426Z" fill="#F5F5F5"/>
<path d="M101.914 11.1348C101.914 11.1096 101.912 11.0844 101.912 11.0579C101.912 9.99614 102.149 9.01272 102.623 8.10494C103.098 7.19717 103.741 6.47121 104.55 5.92708C105.36 5.38294 106.268 5.10955 107.273 5.10955C108.279 5.10955 109.147 5.37896 109.965 5.91646C110.781 6.45396 111.431 7.17328 111.912 8.07442C112.394 8.97423 112.634 9.96959 112.634 11.0592C112.634 11.0844 112.633 11.1096 112.631 11.1362H117.742C117.742 11.1109 117.743 11.0857 117.743 11.0592C117.743 9.02068 117.272 7.16399 116.33 5.48779C115.388 3.81292 114.124 2.47913 112.54 1.48774C110.956 0.496356 109.201 0 107.273 0C105.835 0 104.481 0.286666 103.21 0.85867C101.94 1.43067 100.825 2.22431 99.8693 3.23561C98.9137 4.24823 98.1626 5.42143 97.6184 6.7539C97.0743 8.08769 96.8022 9.52102 96.8022 11.0579C96.8022 11.0831 96.8049 11.1083 96.8049 11.1348H101.914Z" fill="#F5F5F5"/>
<path d="M160.408 5.17325C161.233 5.17325 161.976 5.37896 162.639 5.79171C163.302 6.20313 163.832 6.74859 164.231 7.42544C164.629 8.10361 164.828 8.84682 164.828 9.65639V11.0698H169.937V8.29472C169.937 6.7592 169.563 5.36702 168.817 4.11684C168.07 2.86666 167.072 1.86864 165.822 1.12145C164.573 0.374258 163.18 0 161.644 0C160.192 0 158.858 0.342406 157.644 1.02589C156.43 1.70938 155.451 2.62511 154.711 3.76912C153.985 2.62379 153.011 1.70938 151.79 1.02589C150.569 0.342406 149.232 0 147.779 0C146.634 0 145.567 0.220308 144.575 0.659596C143.584 1.10021 142.732 1.6961 142.019 2.44993V0.586603H136.91V21.5304H142.019V9.65506C142.019 8.84549 142.218 8.10096 142.617 7.42411C143.015 6.74726 143.548 6.20313 144.218 5.79038C144.889 5.37896 145.629 5.17193 146.439 5.17193C147.248 5.17193 148.01 5.371 148.68 5.76915C149.351 6.16729 149.881 6.70081 150.272 7.37102C150.662 8.04124 150.858 8.8017 150.858 9.65373V21.5291H155.968V9.65373C155.968 8.8017 156.169 8.04124 156.576 7.37102C156.98 6.70081 157.514 6.16729 158.177 5.76915C158.841 5.371 159.584 5.17193 160.408 5.17193V5.17325Z" fill="#F5F5F5"/>
<path d="M167.383 22.0745C168.912 22.0745 170.152 20.835 170.152 19.306C170.152 17.7771 168.912 16.5376 167.383 16.5376C165.854 16.5376 164.615 17.7771 164.615 19.306C164.615 20.835 165.854 22.0745 167.383 22.0745Z" fill="#F5F5F5"/>
<path d="M20.9412 11.1346H15.8316C15.8316 11.1598 15.8343 11.1851 15.8343 11.2103C15.8343 12.272 15.5967 13.2568 15.1229 14.1632C14.6478 15.071 14.0055 15.7969 13.1959 16.3411C12.3863 16.8852 11.4786 17.1586 10.4726 17.1586C9.4666 17.1586 8.59864 16.8892 7.78111 16.3517C6.96491 15.8142 6.31461 15.0949 5.83418 14.195C5.35242 13.2952 5.1122 12.2999 5.1122 11.2103C5.1122 11.1837 5.11353 11.1598 5.11486 11.1333H0.00132716C0.00132716 11.1585 0 11.1837 0 11.2103C0 13.2488 0.47114 15.1055 1.41342 16.7817C2.3557 18.4565 3.61915 19.7903 5.20378 20.7817C6.7884 21.7731 8.54423 22.2681 10.4713 22.2681C11.9099 22.2681 13.2636 21.9815 14.535 21.4095C14.9876 21.2051 15.4202 20.9715 15.833 20.7114V32.0002H20.9425V11.1346H20.9399H20.9412Z" fill="#F5F5F5"/>
</svg>
